<svg xmlns="http://www.w3.org/2000/svg" width="28" height="15" viewBox="0 0 28 15" fill="none"><path d="M7.5 0C9.59259 0 11.4853 0.857088 12.8457 2.23926C11.688 3.75373 11 5.6467 11 7.7002C11 9.65031 11.6199 11.4558 12.6738 12.9297C11.3281 14.2125 9.50599 15 7.5 15C3.35787 15 1.62349e-05 11.6422 0 7.5C0 3.3579 3.35786 0 7.5 0ZM21.5791 3.92285L24.0488 1.45312L26.2715 3.67578L23.8037 6.14355H27.2939V9.28711H23.8018L26.2715 11.7568L24.0488 13.9795L21.5791 11.5098V15H18.4365V11.5107L15.9678 13.9795L13.7451 11.7568L16.2148 9.28711H12.7227V6.14355H16.2129L13.7451 3.67578L15.9678 1.45312L18.4365 3.92188V0.428711H21.5791V3.92285Z" fill="black"></path><style>@media (prefers-color-scheme: light) { :root { filter: none; } }
@media (prefers-color-scheme: dark) { :root { filter: contrast(0.3846153846153846) brightness(4.5); } }
</style></svg>